<svg width="30" height="30" viewBox="0 0 30 30" fill="none" xmlns="http://www.w3.org/2000/svg">
<path d="M15 2.5C8.1075 2.5 2.5 8.1075 2.5 15C2.5 21.8925 8.1075 27.5 15 27.5C21.8925 27.5 27.5 21.8925 27.5 15C27.5 13.5925 27.255 12.2428 26.8237 10.979L24.7998 13.0029C24.9311 13.6479 25 14.3162 25 15C25 20.5138 20.5138 25 15 25C9.48625 25 5 20.5138 5 15C5 9.48625 9.48625 5 15 5C17.0413 5 18.9399 5.61736 20.5249 6.67236L22.3145 4.88281C20.2545 3.39031 17.7312 2.5 15 2.5ZM26.6162 4.11621L13.75 16.9824L9.63379 12.8662L7.86621 14.6338L13.75 20.5176L28.3838 5.88379L26.6162 4.11621Z" fill="#338E99"/>
</svg>
