<svg width="18" height="18" viewBox="0 0 18 18" fill="none" xmlns="http://www.w3.org/2000/svg">
<path d="M8.99996 0.666748C4.40496 0.666748 0.666626 4.40508 0.666626 9.00008C0.666626 13.5951 4.40496 17.3334 8.99996 17.3334C13.595 17.3334 17.3333 13.5951 17.3333 9.00008C17.3333 8.06175 17.1699 7.16192 16.8824 6.31942L15.5332 7.6687C15.6207 8.0987 15.6666 8.54425 15.6666 9.00008C15.6666 12.6759 12.6758 15.6667 8.99996 15.6667C5.32413 15.6667 2.33329 12.6759 2.33329 9.00008C2.33329 5.32425 5.32413 2.33341 8.99996 2.33341C10.3608 2.33341 11.6266 2.74499 12.6832 3.44832L13.8763 2.25529C12.5029 1.26029 10.8208 0.666748 8.99996 0.666748ZM16.7441 1.74422L8.16663 10.3217L5.42249 7.57756L4.2441 8.75594L8.16663 12.6785L17.9225 2.92261L16.7441 1.74422Z" fill="#338E99"/>
</svg>
