<svg width="30" height="30" viewBox="0 0 30 30" fill="none" xmlns="http://www.w3.org/2000/svg">
<path opacity="0.929" fill-rule="evenodd" clip-rule="evenodd" d="M6.40626 5.46874C12.0322 5.41667 17.6572 5.46877 23.2813 5.62499C24.0046 5.97167 24.4734 6.54458 24.6875 7.34374C24.8959 12.3437 24.8959 17.3437 24.6875 22.3437C24.4667 22.8377 24.2063 23.3064 23.9063 23.75C20.9152 24.107 17.8944 24.2632 14.8438 24.2187C12.0313 24.1666 9.21876 24.1146 6.40626 24.0625C5.68291 23.7158 5.21416 23.1429 5.00001 22.3437C4.79166 17.3437 4.79166 12.3437 5.00001 7.34374C5.25129 6.51689 5.72004 5.89189 6.40626 5.46874ZM7.34376 10.7812C12.3449 10.7292 17.3449 10.7813 22.3438 10.9375C22.7043 14.5074 22.7564 18.1012 22.5 21.7187C22.2655 21.9143 22.0051 22.0705 21.7188 22.1875C19.4271 22.2396 17.1354 22.2916 14.8438 22.3437C12.3129 22.3864 9.81295 22.2301 7.34376 21.875C6.93016 18.1771 6.93016 14.4792 7.34376 10.7812Z" fill="#338E99"/>
<path opacity="0.941" fill-rule="evenodd" clip-rule="evenodd" d="M12.0312 12.0312C12.6562 12.0312 13.2812 12.0312 13.9062 12.0312C13.9062 12.6562 13.9062 13.2812 13.9062 13.9062C13.2812 13.9062 12.6562 13.9062 12.0312 13.9062C12.0312 13.2812 12.0312 12.6562 12.0312 12.0312Z" fill="#338E99"/>
<path opacity="0.941" fill-rule="evenodd" clip-rule="evenodd" d="M15.7812 12.0312C16.4062 12.0312 17.0312 12.0312 17.6562 12.0312C17.6562 12.6562 17.6562 13.2812 17.6562 13.9062C17.0312 13.9062 16.4062 13.9062 15.7812 13.9062C15.7812 13.2812 15.7812 12.6562 15.7812 12.0312Z" fill="#338E99"/>
<path opacity="0.941" fill-rule="evenodd" clip-rule="evenodd" d="M19.5312 12.0312C20.1562 12.0312 20.7812 12.0312 21.4062 12.0312C21.4062 12.6562 21.4062 13.2812 21.4062 13.9062C20.7812 13.9062 20.1562 13.9062 19.5312 13.9062C19.5312 13.2812 19.5312 12.6562 19.5312 12.0312Z" fill="#338E99"/>
<path opacity="0.848" fill-rule="evenodd" clip-rule="evenodd" d="M15.1562 14.8438C16.1979 14.8438 17.2396 14.8438 18.2812 14.8438C18.2812 15.7812 18.2812 16.7188 18.2812 17.6562C17.2396 17.6562 16.1979 17.6562 15.1562 17.6562C15.1562 16.7188 15.1562 15.7812 15.1562 14.8438Z" fill="#338E99"/>
<path opacity="0.807" fill-rule="evenodd" clip-rule="evenodd" d="M8.28125 15.1562C8.90625 15.1562 9.53125 15.1562 10.1562 15.1562C10.1562 15.8854 10.1562 16.6146 10.1562 17.3438C9.53125 17.3438 8.90625 17.3438 8.28125 17.3438C8.28125 16.6146 8.28125 15.8854 8.28125 15.1562Z" fill="#338E99"/>
<path opacity="0.807" fill-rule="evenodd" clip-rule="evenodd" d="M12.0312 15.1562C12.6562 15.1562 13.2812 15.1562 13.9062 15.1562C13.9062 15.8854 13.9062 16.6146 13.9062 17.3438C13.2812 17.3438 12.6562 17.3438 12.0312 17.3438C12.0312 16.6146 12.0312 15.8854 12.0312 15.1562Z" fill="#338E99"/>
<path opacity="0.807" fill-rule="evenodd" clip-rule="evenodd" d="M19.5312 15.1562C20.1562 15.1562 20.7812 15.1562 21.4062 15.1562C21.4062 15.8854 21.4062 16.6146 21.4062 17.3438C20.7812 17.3438 20.1562 17.3438 19.5312 17.3438C19.5312 16.6146 19.5312 15.8854 19.5312 15.1562Z" fill="#338E99"/>
<path opacity="0.941" fill-rule="evenodd" clip-rule="evenodd" d="M8.28125 18.5938C8.90625 18.5938 9.53125 18.5938 10.1562 18.5938C10.1562 19.2188 10.1562 19.8438 10.1562 20.4688C9.53125 20.4688 8.90625 20.4688 8.28125 20.4688C8.28125 19.8438 8.28125 19.2188 8.28125 18.5938Z" fill="#338E99"/>
<path opacity="0.941" fill-rule="evenodd" clip-rule="evenodd" d="M12.0312 18.5938C12.6562 18.5938 13.2812 18.5938 13.9062 18.5938C13.9062 19.2188 13.9062 19.8438 13.9062 20.4688C13.2812 20.4688 12.6562 20.4688 12.0312 20.4688C12.0312 19.8438 12.0312 19.2188 12.0312 18.5938Z" fill="#338E99"/>
<path opacity="0.941" fill-rule="evenodd" clip-rule="evenodd" d="M15.7812 18.5938C16.4062 18.5938 17.0312 18.5938 17.6562 18.5938C17.6562 19.2188 17.6562 19.8438 17.6562 20.4688C17.0312 20.4688 16.4062 20.4688 15.7812 20.4688C15.7812 19.8438 15.7812 19.2188 15.7812 18.5938Z" fill="#338E99"/>
</svg>
